<svg width="94" height="18" viewBox="0 0 94 18" fill="none" xmlns="http://www.w3.org/2000/svg">
<path d="M11.1885 9.7373C11.0889 11.1143 10.5791 12.1982 9.65918 12.9893C8.74512 13.7803 7.53809 14.1758 6.03809 14.1758C4.39746 14.1758 3.10547 13.625 2.16211 12.5234C1.22461 11.416 0.755859 9.89844 0.755859 7.9707V7.18848C0.755859 5.95801 0.972656 4.87402 1.40625 3.93652C1.83984 2.99902 2.45801 2.28125 3.26074 1.7832C4.06934 1.2793 5.00684 1.02734 6.07324 1.02734C7.5498 1.02734 8.73926 1.42285 9.6416 2.21387C10.5439 3.00488 11.0654 4.11523 11.2061 5.54492H8.56934C8.50488 4.71875 8.27344 4.12109 7.875 3.75195C7.48242 3.37695 6.88184 3.18945 6.07324 3.18945C5.19434 3.18945 4.53516 3.50586 4.0957 4.13867C3.66211 4.76562 3.43945 5.74121 3.42773 7.06543V8.03223C3.42773 9.41504 3.63574 10.4258 4.05176 11.0645C4.47363 11.7031 5.13574 12.0225 6.03809 12.0225C6.85254 12.0225 7.45898 11.8379 7.85742 11.4688C8.26172 11.0938 8.49316 10.5166 8.55176 9.7373H11.1885ZM12.3574 9.15723C12.3574 8.21387 12.5391 7.37305 12.9023 6.63477C13.2656 5.89648 13.7871 5.3252 14.4668 4.9209C15.1523 4.5166 15.9463 4.31445 16.8486 4.31445C18.1318 4.31445 19.1777 4.70703 19.9863 5.49219C20.8008 6.27734 21.2549 7.34375 21.3486 8.69141L21.3662 9.3418C21.3662 10.8008 20.959 11.9727 20.1445 12.8574C19.3301 13.7363 18.2373 14.1758 16.8662 14.1758C15.4951 14.1758 14.3994 13.7363 13.5791 12.8574C12.7646 11.9785 12.3574 10.7832 12.3574 9.27148V9.15723ZM14.8975 9.3418C14.8975 10.2441 15.0674 10.9355 15.4072 11.416C15.7471 11.8906 16.2334 12.1279 16.8662 12.1279C17.4814 12.1279 17.9619 11.8936 18.3076 11.4248C18.6533 10.9502 18.8262 10.1943 18.8262 9.15723C18.8262 8.27246 18.6533 7.58691 18.3076 7.10059C17.9619 6.61426 17.4756 6.37109 16.8486 6.37109C16.2275 6.37109 15.7471 6.61426 15.4072 7.10059C15.0674 7.58105 14.8975 8.32812 14.8975 9.3418ZM25.3125 4.49023L25.3916 5.55371C26.0654 4.72754 26.9766 4.31445 28.125 4.31445C29.3496 4.31445 30.1904 4.79785 30.6475 5.76465C31.3154 4.79785 32.2676 4.31445 33.5039 4.31445C34.5352 4.31445 35.3027 4.61621 35.8066 5.21973C36.3105 5.81738 36.5625 6.71973 36.5625 7.92676V14H34.0137V7.93555C34.0137 7.39648 33.9082 7.00391 33.6973 6.75781C33.4863 6.50586 33.1143 6.37988 32.5811 6.37988C31.8193 6.37988 31.292 6.74316 30.999 7.46973L31.0078 14H28.4678V7.94434C28.4678 7.39355 28.3594 6.99512 28.1426 6.74902C27.9258 6.50293 27.5566 6.37988 27.0352 6.37988C26.3145 6.37988 25.793 6.67871 25.4707 7.27637V14H22.9307V4.49023H25.3125ZM40.9043 4.49023L40.9834 5.55371C41.6572 4.72754 42.5684 4.31445 43.7168 4.31445C44.9414 4.31445 45.7822 4.79785 46.2393 5.76465C46.9072 4.79785 47.8594 4.31445 49.0957 4.31445C50.127 4.31445 50.8945 4.61621 51.3984 5.21973C51.9023 5.81738 52.1543 6.71973 52.1543 7.92676V14H49.6055V7.93555C49.6055 7.39648 49.5 7.00391 49.2891 6.75781C49.0781 6.50586 48.7061 6.37988 48.1729 6.37988C47.4111 6.37988 46.8838 6.74316 46.5908 7.46973L46.5996 14H44.0596V7.94434C44.0596 7.39355 43.9512 6.99512 43.7344 6.74902C43.5176 6.50293 43.1484 6.37988 42.627 6.37988C41.9062 6.37988 41.3848 6.67871 41.0625 7.27637V14H38.5225V4.49023H40.9043ZM59.8096 13.0332C59.1826 13.7949 58.3154 14.1758 57.208 14.1758C56.1885 14.1758 55.4092 13.8828 54.8701 13.2969C54.3369 12.7109 54.0645 11.8525 54.0527 10.7217V4.49023H56.5928V10.6338C56.5928 11.624 57.0439 12.1191 57.9463 12.1191C58.8076 12.1191 59.3994 11.8203 59.7217 11.2227V4.49023H62.2705V14H59.8799L59.8096 13.0332ZM66.5244 4.49023L66.6035 5.58887C67.2832 4.73926 68.1943 4.31445 69.3369 4.31445C70.3447 4.31445 71.0947 4.61035 71.5869 5.20215C72.0791 5.79395 72.3311 6.67871 72.3428 7.85645V14H69.8027V7.91797C69.8027 7.37891 69.6855 6.98926 69.4512 6.74902C69.2168 6.50293 68.8271 6.37988 68.2822 6.37988C67.5674 6.37988 67.0312 6.68457 66.6738 7.29395V14H64.1338V4.49023H66.5244ZM76.957 14H74.4082V4.49023H76.957V14ZM74.2588 2.0293C74.2588 1.64844 74.3848 1.33496 74.6367 1.08887C74.8945 0.842773 75.2432 0.719727 75.6826 0.719727C76.1162 0.719727 76.4619 0.842773 76.7197 1.08887C76.9775 1.33496 77.1064 1.64844 77.1064 2.0293C77.1064 2.41602 76.9746 2.73242 76.7109 2.97852C76.4531 3.22461 76.1104 3.34766 75.6826 3.34766C75.2549 3.34766 74.9092 3.22461 74.6455 2.97852C74.3877 2.73242 74.2588 2.41602 74.2588 2.0293ZM82.0986 2.15234V4.49023H83.7246V6.35352H82.0986V11.0996C82.0986 11.4512 82.166 11.7031 82.3008 11.8555C82.4355 12.0078 82.6934 12.084 83.0742 12.084C83.3555 12.084 83.6045 12.0635 83.8213 12.0225V13.9473C83.3232 14.0996 82.8105 14.1758 82.2832 14.1758C80.502 14.1758 79.5938 13.2764 79.5586 11.4775V6.35352H78.1699V4.49023H79.5586V2.15234H82.0986ZM88.6904 10.4053L90.4482 4.49023H93.1729L89.3496 15.4766L89.1387 15.9775C88.5703 17.2197 87.6328 17.8408 86.3262 17.8408C85.957 17.8408 85.582 17.7852 85.2012 17.6738V15.749L85.5879 15.7578C86.0684 15.7578 86.4258 15.6846 86.6602 15.5381C86.9004 15.3916 87.0879 15.1484 87.2227 14.8086L87.5215 14.0264L84.1904 4.49023H86.9238L88.6904 10.4053Z" fill="#C36B84"/>
</svg>
